<?xml version="1.0" encoding="utf-8"?>
<!-- Generator: Adobe Illustrator 17.1.0, SVG Export Plug-In . SVG Version: 6.00 Build 0)  -->
<!DOCTYPE svg PUBLIC "-//W3C//DTD SVG 1.1//EN" "http://www.w3.org/Graphics/SVG/1.1/DTD/svg11.dtd">
<svg version="1.1" id="Layer_4" xmlns="http://www.w3.org/2000/svg" xmlns:xlink="http://www.w3.org/1999/xlink" x="0px" y="0px"
	 viewBox="0 0 40 48" enable-background="new 0 0 40 48" xml:space="preserve">
<path fill="#FFF200" d="M36.8,0.1H3.3C2,0.1,0.9,0.8,0.4,1.9C0.2,2.3,0.1,2.8,0.1,3.2v41.5c0,1.8,1.4,3.2,3.2,3.2h33.5
	c0.5,0,0.9-0.1,1.3-0.3c1.1-0.5,1.9-1.6,1.9-2.9V3.2C40,1.5,38.6,0.1,36.8,0.1z M33,41.6h-26c-0.9,0-1.6-0.7-1.6-1.6
	c0-0.9,0.7-1.6,1.6-1.6h26c0.9,0,1.6,0.7,1.6,1.6C34.6,40.8,33.9,41.6,33,41.6z M33,33.6h-26c-0.9,0-1.6-0.7-1.6-1.6
	c0-0.9,0.7-1.6,1.6-1.6h26c0.9,0,1.6,0.7,1.6,1.6C34.6,32.9,33.9,33.6,33,33.6z M33,25.6h-26c-0.9,0-1.6-0.7-1.6-1.6
	c0-0.9,0.7-1.6,1.6-1.6h26c0.9,0,1.6,0.7,1.6,1.6C34.6,24.9,33.9,25.6,33,25.6z M33,17.6h-26c-0.9,0-1.6-0.7-1.6-1.6
	c0-0.9,0.7-1.6,1.6-1.6h26c0.9,0,1.6,0.7,1.6,1.6C34.6,16.9,33.9,17.6,33,17.6z M33,9.6h-26C6.2,9.6,5.5,8.9,5.5,8
	c0-0.9,0.7-1.6,1.6-1.6h26c0.9,0,1.6,0.7,1.6,1.6C34.6,8.9,33.9,9.6,33,9.6z"/>
</svg>
