<?xml version="1.0" encoding="utf-8"?>
<!-- Generator: Adobe Illustrator 17.1.0, SVG Export Plug-In . SVG Version: 6.00 Build 0)  -->
<!DOCTYPE svg PUBLIC "-//W3C//DTD SVG 1.1//EN" "http://www.w3.org/Graphics/SVG/1.1/DTD/svg11.dtd">
<svg version="1.1" id="Layer_4" xmlns="http://www.w3.org/2000/svg" xmlns:xlink="http://www.w3.org/1999/xlink" x="0px" y="0px"
	 viewBox="0 0 47 53" enable-background="new 0 0 47 53" xml:space="preserve">
<g>
	<path fill="#FFF200" d="M13.1,21.7c2.5,5.9,7.2,9.2,10.4,9.2c3.1,0,7.5-3.1,10-9c0.6-1.4,1.1-3.2,1.5-5c0.4-1.4,0.6-3.2,0.6-5.5
		c0-6.1-5.4-11.2-12.2-11.2c-6.7,0-12.2,5.1-12.2,11.2c0,1.6,0.1,3,0.3,4.1C11.9,17.5,12.3,19.9,13.1,21.7z"/>
	<path fill="#FFF200" d="M45,39c-2.4-2.6-9.3-1.9-12.6-3.7c-1.5,2.8-1.5,7.4-4,7.4c-0.1,0-0.2,0-0.3,0c-3.8-0.6-1.9-10.1-4.5-10.1
		c-2.6,0-0.8,9.6-4.5,10.1c-0.1,0-0.2,0-0.3,0c-2.5,0-2.5-4.6-4-7.4C11.3,37,4.4,36.4,2,39c-1.3,1.4-2,10.1-2,14h47
		C47,49.1,46.3,40.4,45,39z"/>
</g>
</svg>
