<?xml version="1.0" encoding="utf-8"?>
<!-- Generator: Adobe Illustrator 17.1.0, SVG Export Plug-In . SVG Version: 6.00 Build 0)  -->
<!DOCTYPE svg PUBLIC "-//W3C//DTD SVG 1.1//EN" "http://www.w3.org/Graphics/SVG/1.1/DTD/svg11.dtd">
<svg version="1.1" id="Layer_4" xmlns="http://www.w3.org/2000/svg" xmlns:xlink="http://www.w3.org/1999/xlink" x="0px" y="0px"
	 viewBox="0 0 65 42" enable-background="new 0 0 65 42" xml:space="preserve">
<g>
	<g>
		<rect x="23.8" y="27" fill="#FFF200" width="3.9" height="9.3"/>
		<rect x="30.5" y="27" fill="#FFF200" width="3.9" height="9.3"/>
		<rect x="37.2" y="27" fill="#FFF200" width="3.9" height="9.3"/>
		<rect x="21.6" y="37.7" fill="#FFF200" width="21.8" height="1.6"/>
		<rect x="21.5" y="24.6" fill="#FFF200" width="22.1" height="1.2"/>
		<rect x="19.4" y="40.2" fill="#FFF200" width="26.3" height="1.6"/>
		<polygon fill="#FFF200" points="21.5,23.9 43.5,23.9 32.5,17.5 		"/>
		<polygon fill="#FFF200" points="32.5,16.6 45.6,24.3 46.5,22.7 32.5,14.5 18.5,22.7 19.4,24.3 		"/>
	</g>
	<g>
		<g>
			<rect x="3" y="20.4" fill="#FFF200" width="2.2" height="5.2"/>
			<rect x="6.8" y="20.4" fill="#FFF200" width="2.2" height="5.2"/>
			<rect x="10.5" y="20.4" fill="#FFF200" width="2.2" height="5.2"/>
			<rect x="1.8" y="26.4" fill="#FFF200" width="12.3" height="0.9"/>
			<rect x="1.7" y="19.1" fill="#FFF200" width="12.4" height="0.7"/>
			<rect x="0.5" y="27.8" fill="#FFF200" width="14.8" height="0.9"/>
			<polygon fill="#FFF200" points="1.7,18.7 14.1,18.7 7.9,15.1 			"/>
			<polygon fill="#FFF200" points="7.9,14.5 15.3,18.9 15.8,18 7.9,13.4 0,18 0.5,18.9 			"/>
		</g>
		<g>
			<rect x="52.2" y="20.4" fill="#FFF200" width="2.2" height="5.2"/>
			<rect x="56" y="20.4" fill="#FFF200" width="2.2" height="5.2"/>
			<rect x="59.8" y="20.4" fill="#FFF200" width="2.2" height="5.2"/>
			<rect x="51" y="26.4" fill="#FFF200" width="12.3" height="0.9"/>
			<rect x="50.9" y="19.1" fill="#FFF200" width="12.4" height="0.7"/>
			<rect x="49.7" y="27.8" fill="#FFF200" width="14.8" height="0.9"/>
			<polygon fill="#FFF200" points="50.9,18.7 63.3,18.7 57.1,15.1 			"/>
			<polygon fill="#FFF200" points="57.1,14.5 64.5,18.9 65,18 57.1,13.4 49.2,18 49.7,18.9 			"/>
		</g>
		<path fill="#FFF200" d="M32,1.8c9.1,0,17,4.6,21.7,11.6l1.4-0.8C50.1,5.1,41.6,0.2,32,0.2C22.5,0.2,14.2,4.8,9.2,12l1.4,0.8
			C15.3,6.2,23.1,1.8,32,1.8z"/>
	</g>
</g>
</svg>
