<?xml version="1.0" encoding="utf-8"?>
<!-- Generator: Adobe Illustrator 17.1.0, SVG Export Plug-In . SVG Version: 6.00 Build 0)  -->
<!DOCTYPE svg PUBLIC "-//W3C//DTD SVG 1.1//EN" "http://www.w3.org/Graphics/SVG/1.1/DTD/svg11.dtd">
<svg version="1.1" id="Layer_4" xmlns="http://www.w3.org/2000/svg" xmlns:xlink="http://www.w3.org/1999/xlink" x="0px" y="0px"
	 viewBox="0 0 55 54" enable-background="new 0 0 55 54" xml:space="preserve">
<path fill="#FFF200" d="M53.6,26.8l-6.8-11.4c0.8-0.4,1.3-1.2,1.3-2.1c0-1.3-1-2.3-2.3-2.3c-0.1,0-0.2,0-0.3,0
	c-3.8-3.6-8.4-5.8-13.2-6.7C32.2,1.9,30.3,0,27.8,0c-2.4,0-4.4,1.9-4.6,4.3c-4.9,0.9-9.6,3.1-13.4,6.8C9.6,11.1,9.4,11,9.1,11
	c-1.3,0-2.3,1-2.3,2.3c0,0.9,0.6,1.7,1.3,2.1L1.4,26.8H0c0.7,4.4,4.5,7.8,9.1,7.8c4.6,0,8.4-3.4,9.1-7.8h-1.4l-6.8-11.4
	c0.8-0.4,1.3-1.2,1.3-2.1c0-0.5-0.2-0.9-0.4-1.3c3.6-3.4,7.9-5.5,12.4-6.3c0.4,1.5,1.5,2.7,2.9,3.2v35.3c0,0,0,0,0,0
	c-0.8,0-4.4,1.5-7.9,3.4c-3.5,1.9-6.4,4.1-6.4,5c0,0.8,3.5,1.5,7.9,1.5c4.3,0,11.4,0,15.7,0c4.3,0,7.9-0.7,7.9-1.5
	c0-0.8-2.9-3.1-6.4-5c-3.5-1.9-7.1-3.4-7.9-3.4c0,0,0,0,0,0V8.9c1.4-0.5,2.5-1.7,2.9-3.1c4.4,0.8,8.5,2.8,12,6
	c-0.4,0.4-0.7,1-0.7,1.6c0,0.9,0.6,1.7,1.3,2.1l-6.8,11.4h-1.4c0.7,4.4,4.5,7.8,9.1,7.8c4.6,0,8.4-3.4,9.1-7.8H53.6z M46.8,13.3
	c0,0.5-0.4,0.9-0.9,0.9c-0.5,0-0.9-0.4-0.9-0.9s0.4-0.9,0.9-0.9C46.4,12.4,46.8,12.8,46.8,13.3z M9.1,12.4c0.5,0,0.9,0.4,0.9,0.9
	s-0.4,0.9-0.9,0.9c-0.5,0-0.9-0.4-0.9-0.9S8.6,12.4,9.1,12.4z M3,26.8l6.1-10.3l6.1,10.3H3z M45.9,16.5L52,26.8H39.7L45.9,16.5z"/>
</svg>
