<?xml version="1.0" encoding="utf-8"?>
<!-- Generator: Adobe Illustrator 17.1.0, SVG Export Plug-In . SVG Version: 6.00 Build 0)  -->
<!DOCTYPE svg PUBLIC "-//W3C//DTD SVG 1.1//EN" "http://www.w3.org/Graphics/SVG/1.1/DTD/svg11.dtd">
<svg version="1.1" id="Layer_4" xmlns="http://www.w3.org/2000/svg" xmlns:xlink="http://www.w3.org/1999/xlink" x="0px" y="0px"
	 viewBox="0 0 58 38" enable-background="new 0 0 58 38" xml:space="preserve">
<path fill="#FFF200" d="M57.4,0.9C56.9,0.3,56.1,0,55.3,0H16.1c-1.6,0-3.1,1.3-3.4,2.9l0,0.1h-10C1.9,3,1.1,3.3,0.6,3.9
	C0.1,4.5-0.1,5.4,0,6.2l5.1,28.9C5.4,36.7,6.9,38,8.5,38h40.9c0.8,0,1.6-0.3,2.1-0.9c0.3-0.4,0.5-0.8,0.6-1.3l0,0L58,3.2
	C58.1,2.4,57.9,1.6,57.4,0.9z M50,35.7c-0.1,0.1-0.3,0.2-0.5,0.2H8.5c-0.6,0-1.3-0.6-1.4-1.2L2,5.8c0-0.2,0-0.5,0.1-0.6
	C2.3,5.1,2.5,5,2.7,5h11.8c0.6,0,1.3,0.6,1.4,1.2l0.2,1.2c0.3,1.6,1.8,2.9,3.4,2.9h25.1c0.6,0,1.3,0.6,1.4,1.2l4.2,23.6
	C50.2,35.4,50.1,35.6,50,35.7z M56,2.9l-4.8,26.7L48,11.1c-0.3-1.6-1.8-2.9-3.4-2.9H19.5c-0.6,0-1.3-0.6-1.4-1.2l-0.2-1.2
	c-0.3-1.5-1.6-2.7-3.1-2.9c0.2-0.5,0.8-1,1.3-1h39.2c0.2,0,0.4,0.1,0.5,0.2C56,2.4,56,2.6,56,2.9z"/>
</svg>
